<?xml version="1.0" encoding="UTF-8" standalone="no"?>
<!-- Created with Serif DrawPlus 11, 0, 0, 18 (Mar 20, 15:09:53) (http://www.serif.com) -->
<svg version="1.1" xmlns="http://www.w3.org/2000/svg" xmlns:xlink="http://www.w3.org/1999/xlink" xmlns:i="http://ns.adobe.com/AdobeIllustrator/10.0/" width="680.797" height="657.061" fill="#333" fill-rule="evenodd">
	<g id="dp_group001" transform="matrix(1,0,0,1,-67.8813,-184.76)">
		<path id="dp_path002" d="M 292.757,661.067 L 292.161,656.387 L 291.608,651.748 L 291.097,647.111 L 290.629,642.515 L 289.779,633.367 L 288.969,624.133 L 287.353,605.368 L 286.46,595.709 L 285.992,590.773 L 285.481,585.753 L 285.396,585.115 L 285.396,584.519 L 285.439,583.965 L 285.481,583.497 L 285.608,583.029 L 285.736,582.647 L 285.907,582.264 L 286.119,581.924 L 286.375,581.625 L 286.629,581.413 L 286.969,581.157 L 287.311,580.988 L 287.651,580.86 L 288.076,580.732 L 288.501,580.647 L 288.927,580.604 L 289.395,580.604 L 289.905,580.604 L 290.969,580.689 L 292.119,580.903 L 293.395,581.243 L 294.715,581.625 L 296.076,582.093 L 297.523,582.647 L 299.012,583.285 L 300.544,583.923 L 302.075,584.647 L 305.309,586.179 L 308.543,587.837 L 311.819,589.497 L 314.968,591.072 L 318.031,592.604 L 320.883,593.923 L 322.201,594.476 L 323.477,594.987 L 318.287,577.711 L 313.096,560.648 L 307.82,543.117 L 305.139,534.012 L 302.373,524.523 L 302.117,523.587 L 301.905,522.651 L 301.777,521.715 L 301.692,520.864 L 301.649,520.013 L 301.692,519.204 L 301.777,518.481 L 301.905,517.757 L 302.032,517.077 L 302.245,516.481 L 302.5,515.885 L 302.799,515.417 L 303.096,514.949 L 303.437,514.609 L 303.82,514.268 L 304.245,514.056 L 304.671,513.885 L 305.139,513.8 L 305.607,513.8 L 306.075,513.885 L 306.585,514.013 L 307.139,514.268 L 307.649,514.652 L 308.203,515.077 L 308.756,515.631 L 309.308,516.268 L 309.861,517.035 L 310.457,517.885 L 311.011,518.864 L 311.564,519.971 L 312.117,521.161 L 312.628,522.524 L 313.691,525.289 L 314.669,528.012 L 316.584,533.501 L 318.372,538.991 L 320.073,544.395 L 321.691,549.84 L 323.223,555.244 L 324.669,560.605 L 326.116,566.009 L 328.839,576.732 L 331.563,587.455 L 332.924,592.816 L 334.371,598.177 L 335.817,603.581 L 337.307,608.985 L 337.433,609.539 L 337.519,610.049 L 337.519,610.517 L 337.476,610.857 L 337.349,611.156 L 337.179,611.411 L 336.924,611.581 L 336.668,611.708 L 336.285,611.751 L 335.903,611.751 L 335.477,611.708 L 334.967,611.624 L 334.413,611.496 L 333.86,611.283 L 332.583,610.772 L 331.136,610.135 L 329.605,609.368 L 327.945,608.432 L 326.159,607.453 L 322.456,605.241 L 318.541,602.901 L 314.585,600.56 L 312.671,599.455 L 310.755,598.391 L 308.925,597.412 L 307.181,596.519 L 305.479,595.752 L 303.948,595.156 L 303.224,594.859 L 302.5,594.645 L 301.863,594.476 L 301.224,594.348 L 300.671,594.263 L 300.117,594.22 L 299.607,594.263 L 299.181,594.348 L 298.756,594.476 L 298.416,594.688 L 298.119,594.944 L 297.905,595.241 L 297.735,595.624 L 297.608,596.092 L 297.523,596.645 L 297.565,597.241 L 298.501,612.092 L 299.437,626.899 L 300.373,641.749 L 300.756,649.153 L 301.139,656.556 L 301.181,657.833 L 301.181,659.024 L 301.096,660.131 L 301.012,661.152 L 300.884,662.088 L 300.713,662.981 L 300.501,663.748 L 300.288,664.471 L 300.033,665.067 L 299.735,665.62 L 299.437,666.131 L 299.097,666.513 L 298.756,666.853 L 298.373,667.109 L 298.033,667.279 L 297.649,667.407 L 297.267,667.492 L 296.884,667.449 L 296.501,667.407 L 296.119,667.236 L 295.735,667.067 L 295.352,666.768 L 295.012,666.471 L 294.672,666.088 L 294.331,665.663 L 294.033,665.152 L 293.736,664.599 L 293.48,664.003 L 293.268,663.321 L 293.055,662.641 L 292.884,661.875 Z "/>
		<path id="dp_path003" d="M 533.887,841.82 L 536.013,841.735 L 538.099,841.649 L 540.184,841.48 L 542.268,841.267 L 544.311,841.012 L 546.353,840.713 L 548.396,840.373 L 550.396,839.948 L 552.396,839.48 L 554.352,838.969 L 556.309,838.416 L 558.224,837.863 L 560.14,837.183 L 562.055,836.501 L 563.884,835.777 L 565.756,835.012 L 567.585,834.204 L 569.373,833.352 L 571.16,832.416 L 572.904,831.48 L 574.607,830.501 L 576.308,829.48 L 578.011,828.417 L 579.627,827.311 L 581.244,826.161 L 582.861,825.013 L 584.393,823.779 L 585.924,822.545 L 587.413,821.268 L 588.903,819.949 L 590.349,818.588 L 591.753,817.184 L 593.116,815.779 L 594.435,814.332 L 595.753,812.843 L 596.988,811.355 L 598.221,809.78 L 599.413,808.205 L 600.604,806.631 L 601.711,804.972 L 602.775,803.312 L 603.837,801.652 L 604.816,799.951 L 605.795,798.207 L 606.732,796.419 L 607.583,794.632 L 608.433,792.845 L 609.241,791.015 L 609.965,789.143 L 610.688,787.271 L 611.369,785.356 L 611.965,783.441 L 612.561,781.484 L 613.071,779.527 L 613.539,777.569 L 613.965,775.569 L 614.348,773.527 L 614.688,771.527 L 614.987,769.443 L 615.241,767.4 L 615.412,765.315 L 615.539,763.229 L 615.624,761.103 L 615.624,758.975 L 615.624,757.145 L 615.539,755.273 L 672.428,726.552 L 672.131,730.807 L 671.789,735.104 L 671.364,739.401 L 670.896,743.741 L 670.385,748.081 L 669.832,752.464 L 669.237,756.889 L 668.556,761.315 L 667.833,765.783 L 667.024,770.293 L 666.216,774.804 L 665.323,779.356 L 664.344,783.952 L 663.365,788.547 L 662.301,793.185 L 661.152,797.865 L 663.152,793.397 L 665.152,788.931 L 667.195,784.505 L 669.28,780.08 L 673.492,771.229 L 677.789,762.421 L 682.172,753.613 L 686.597,744.805 L 691.065,735.912 L 695.491,727.02 L 699.915,717.999 L 704.297,708.936 L 706.468,704.34 L 708.596,699.745 L 710.68,695.107 L 712.808,690.427 L 714.851,685.704 L 716.851,680.937 L 718.849,676.172 L 720.807,671.321 L 722.721,666.428 L 724.595,661.535 L 726.424,656.556 L 728.168,651.536 L 729.871,646.429 L 731.529,641.281 L 733.147,636.089 L 734.679,630.813 L 736.168,625.495 L 737.572,620.133 L 738.933,614.644 L 740.168,609.156 L 741.359,603.539 L 742.465,597.88 L 743.529,592.093 L 744.465,586.307 L 745.316,580.392 L 746.081,574.392 L 746.763,568.308 L 747.316,562.137 L 747.827,555.883 L 748.167,549.543 L 748.337,546.309 L 748.464,543.075 L 748.549,539.841 L 748.635,536.523 L 748.677,533.247 L 748.677,529.884 L 748.592,523.161 L 748.549,519.757 L 748.423,516.311 L 748.295,512.864 L 748.124,509.376 L 747.953,505.844 L 747.741,502.312 L 747.444,498.737 L 747.188,495.121 L 746.848,491.504 L 746.507,487.845 L 746.124,484.143 L 745.699,480.441 L 745.231,476.697 L 744.763,472.909 L 744.252,469.123 L 743.699,465.293 L 743.103,461.421 L 742.465,457.549 L 741.827,453.592 L 741.147,449.635 L 740.72,447.423 L 740.209,445.252 L 739.7,443.083 L 739.104,440.955 L 738.465,438.827 L 737.827,436.743 L 737.104,434.7 L 736.337,432.657 L 735.529,430.615 L 734.679,428.615 L 733.785,426.615 L 732.849,424.657 L 731.871,422.7 L 730.849,420.785 L 729.785,418.828 L 728.721,416.956 L 727.572,415.041 L 726.424,413.169 L 725.232,411.297 L 723.999,409.468 L 722.764,407.637 L 721.488,405.808 L 720.169,403.979 L 718.849,402.192 L 716.084,398.575 L 713.233,395.043 L 710.297,391.512 L 707.319,387.98 L 704.213,384.491 L 701.107,381.001 L 697.916,377.512 L 694.681,373.981 L 688.172,366.96 L 681.576,359.812 L 678.257,356.195 L 674.981,352.536 L 671.748,348.833 L 668.513,345.089 L 665.323,341.303 L 662.173,337.431 L 659.111,333.473 L 656.132,329.473 L 653.408,325.813 L 650.685,322.155 L 647.92,318.537 L 645.111,314.921 L 642.26,311.347 L 639.409,307.815 L 636.516,304.327 L 633.58,300.837 L 630.559,297.433 L 627.539,294.072 L 624.432,290.709 L 621.284,287.433 L 618.092,284.2 L 614.816,281.008 L 611.455,277.903 L 608.051,274.839 L 604.604,271.817 L 601.029,268.881 L 597.413,265.988 L 593.711,263.223 L 591.839,261.819 L 589.924,260.457 L 588.009,259.137 L 586.052,257.819 L 584.052,256.5 L 582.095,255.223 L 580.053,253.989 L 578.011,252.755 L 575.968,251.521 L 573.84,250.329 L 571.756,249.139 L 569.585,247.989 L 567.457,246.841 L 565.245,245.735 L 563.033,244.671 L 560.777,243.607 L 558.523,242.543 L 556.225,241.521 L 553.884,240.543 L 551.544,239.564 L 549.161,238.628 L 546.736,237.735 L 544.268,236.841 L 541.8,235.948 L 538.227,234.713 L 534.695,233.437 L 531.376,232.161 L 529.759,231.523 L 528.227,230.884 L 526.737,230.204 L 525.333,229.565 L 524.015,228.884 L 522.781,228.204 L 521.632,227.523 L 520.568,226.843 L 519.632,226.161 L 518.781,225.437 L 518.057,224.715 L 517.42,223.991 L 517.164,223.651 L 516.952,223.268 L 516.781,222.885 L 516.611,222.544 L 516.484,222.161 L 516.441,221.779 L 516.356,221.396 L 516.356,221.013 L 516.399,220.629 L 516.484,220.247 L 516.568,219.821 L 516.739,219.439 L 516.909,219.056 L 517.164,218.629 L 517.42,218.247 L 517.76,217.821 L 518.143,217.396 L 518.525,216.971 L 518.993,216.545 L 519.504,216.163 L 520.653,215.268 L 522.015,214.417 L 523.589,213.524 L 525.376,212.588 L 524.525,211.992 L 523.675,211.396 L 522.823,210.885 L 521.972,210.46 L 521.121,210.077 L 520.271,209.737 L 519.419,209.481 L 518.568,209.227 L 517.76,209.056 L 516.909,208.928 L 516.057,208.844 L 515.207,208.801 L 514.399,208.801 L 513.548,208.801 L 512.696,208.885 L 511.888,208.971 L 511.037,209.141 L 510.228,209.312 L 509.377,209.481 L 508.569,209.695 L 506.909,210.205 L 505.251,210.801 L 503.591,211.481 L 501.931,212.205 L 498.612,213.695 L 495.293,215.184 L 493.635,215.907 L 491.975,216.545 L 490.315,217.141 L 488.656,217.693 L 486.996,218.12 L 486.145,218.289 L 485.295,218.417 L 484.444,218.503 L 483.635,218.588 L 482.784,218.629 L 481.933,218.629 L 481.081,218.588 L 480.231,218.503 L 479.423,218.375 L 478.572,218.204 L 477.72,217.949 L 476.827,217.693 L 475.976,217.353 L 475.125,216.971 L 474.273,216.545 L 473.423,216.035 L 472.572,215.481 L 471.679,214.885 L 469.807,213.396 L 468.104,211.992 L 466.572,210.673 L 465.253,209.396 L 464.104,208.205 L 463.125,207.056 L 462.317,205.949 L 461.679,204.929 L 461.424,204.419 L 461.169,203.908 L 460.999,203.44 L 460.828,203.015 L 460.7,202.545 L 460.616,202.12 L 460.573,201.695 L 460.573,201.269 L 460.573,200.887 L 460.616,200.504 L 460.7,200.12 L 460.828,199.737 L 460.956,199.397 L 461.127,199.057 L 461.339,198.716 L 461.552,198.376 L 461.807,198.079 L 462.105,197.737 L 462.743,197.143 L 463.509,196.589 L 464.317,196.079 L 465.253,195.568 L 466.275,195.1 L 467.339,194.675 L 468.487,194.249 L 469.679,193.865 L 470.955,193.483 L 472.275,193.143 L 473.679,192.801 L 476.529,192.164 L 479.508,191.568 L 476.784,190.632 L 473.976,189.739 L 471.168,188.929 L 468.36,188.164 L 465.467,187.483 L 462.573,186.845 L 459.637,186.335 L 456.659,185.867 L 453.68,185.484 L 450.616,185.185 L 447.553,184.931 L 444.447,184.803 L 441.34,184.76 L 438.149,184.803 L 434.959,184.931 L 431.724,185.143 L 429.98,185.313 L 428.277,185.611 L 426.576,185.952 L 424.873,186.42 L 423.172,186.931 L 421.469,187.483 L 419.768,188.121 L 418.108,188.803 L 416.407,189.525 L 414.661,190.292 L 411.215,191.908 L 404.152,195.397 L 400.493,197.184 L 398.62,198.036 L 396.748,198.844 L 394.791,199.652 L 392.833,200.461 L 390.833,201.184 L 388.835,201.865 L 386.749,202.504 L 384.621,203.099 L 382.495,203.609 L 380.281,204.077 L 378.027,204.461 L 375.729,204.759 L 373.388,204.972 L 371.005,205.099 L 364.665,205.269 L 358.709,205.481 L 353.049,205.737 L 347.645,206.035 L 342.54,206.419 L 337.689,206.844 L 335.349,207.099 L 333.052,207.355 L 330.796,207.652 L 328.584,207.992 L 326.413,208.333 L 324.287,208.673 L 322.201,209.099 L 320.116,209.524 L 318.073,209.949 L 316.075,210.46 L 314.075,210.971 L 312.117,211.524 L 310.16,212.12 L 308.245,212.759 L 306.288,213.439 L 304.373,214.163 L 302.459,214.885 L 300.544,215.693 L 298.628,216.545 L 296.713,217.396 L 294.756,218.332 L 292.799,219.311 L 290.843,220.332 L 288.885,221.439 L 286.885,222.544 L 284.843,223.736 L 282.8,224.969 L 280.715,226.247 L 278.588,227.608 L 276.417,229.012 L 274.205,230.501 L 271.949,232.033 L 267.355,235.267 L 262.504,238.756 L 257.397,242.543 L 252.079,246.585 L 246.42,250.925 L 240.505,255.607 L 234.208,260.541 L 227.571,265.86 L 213.104,277.435 L 212.848,277.604 L 212.38,277.903 L 210.891,278.839 L 206.083,281.817 L 192.084,290.412 L 178.043,299.007 L 173.235,301.985 L 171.788,302.964 L 171.32,303.263 L 171.064,303.432 L 156.172,315.985 L 148.641,322.367 L 144.896,325.644 L 141.152,328.92 L 137.408,332.196 L 133.705,335.557 L 130.047,338.919 L 126.472,342.324 L 122.899,345.769 L 119.409,349.301 L 116.005,352.833 L 112.687,356.408 L 109.409,360.024 L 107.836,361.853 L 106.261,363.727 L 104.729,365.556 L 103.24,367.428 L 101.751,369.3 L 100.304,371.215 L 98.9,373.129 L 97.496,375.044 L 96.1347,377.001 L 94.8147,378.959 L 93.5387,380.916 L 92.3053,382.916 L 91.0707,384.916 L 89.88,386.916 L 88.7733,388.959 L 87.6667,391.001 L 86.6027,393.043 L 85.5827,395.128 L 84.604,397.213 L 83.6667,399.34 L 82.816,401.468 L 81.9653,403.639 L 81.1573,405.808 L 80.4333,407.979 L 79.7533,410.191 L 79.1147,412.404 L 78.5187,414.616 L 77.9653,416.913 L 77.4547,419.169 L 77.0293,421.467 L 75.5827,429.977 L 74.264,438.316 L 73.1147,446.529 L 72.0507,454.613 L 71.54,458.571 L 71.1147,462.528 L 70.3067,470.315 L 69.924,474.144 L 69.5827,477.931 L 69.2853,481.717 L 69.0307,485.463 L 68.5627,492.824 L 68.392,496.44 L 68.2213,500.057 L 68.0093,507.163 L 67.8813,514.184 L 67.8813,517.631 L 67.8813,521.077 L 68.0093,527.8 L 68.0947,531.161 L 68.2213,534.48 L 68.3493,537.756 L 68.52,540.991 L 68.9453,547.415 L 69.4987,553.755 L 70.0933,559.968 L 70.8173,566.052 L 71.2,569.073 L 71.6253,572.095 L 72.5613,578.009 L 73.54,583.839 L 74.6467,589.583 L 75.8387,595.241 L 77.1147,600.816 L 78.476,606.305 L 79.9227,611.751 L 81.4547,617.069 L 83.072,622.347 L 84.7307,627.537 L 86.5187,632.685 L 88.348,637.792 L 90.2627,642.771 L 92.2627,647.748 L 94.3053,652.641 L 96.432,657.492 L 98.6027,662.301 L 100.857,667.067 L 103.197,671.789 L 105.58,676.469 L 108.005,681.108 L 110.516,685.704 L 113.069,690.299 L 115.665,694.852 L 118.345,699.361 L 121.025,703.872 L 123.792,708.34 L 126.6,712.808 L 129.451,717.276 L 132.344,721.701 L 135.28,726.127 L 138.259,730.551 L 141.28,734.976 L 147.449,743.827 L 153.704,752.72 L 160.087,761.656 L 173.192,779.739 L 172.171,776.377 L 171.149,773.059 L 170.171,769.697 L 169.235,766.379 L 168.341,763.017 L 167.491,759.699 L 166.639,756.337 L 165.831,753.017 L 165.065,749.656 L 164.341,746.295 L 163.619,742.976 L 162.98,739.615 L 162.341,736.296 L 161.747,732.935 L 161.193,729.572 L 160.64,726.253 L 221.996,757.231 L 221.953,758.975 L 221.996,761.145 L 222.081,763.272 L 222.209,765.357 L 222.38,767.443 L 222.635,769.527 L 222.932,771.612 L 223.273,773.655 L 223.656,775.697 L 224.081,777.697 L 224.592,779.697 L 225.103,781.655 L 225.699,783.612 L 226.336,785.568 L 226.975,787.484 L 227.699,789.356 L 228.464,791.228 L 229.272,793.057 L 230.124,794.887 L 231.017,796.675 L 231.953,798.461 L 232.932,800.205 L 233.953,801.951 L 235.017,803.652 L 236.123,805.312 L 237.272,806.929 L 238.421,808.545 L 239.655,810.12 L 240.888,811.695 L 242.165,813.184 L 243.484,814.673 L 244.845,816.12 L 246.249,817.567 L 247.655,818.928 L 249.101,820.289 L 250.589,821.608 L 252.121,822.885 L 253.653,824.161 L 255.228,825.353 L 256.845,826.544 L 258.504,827.651 L 260.164,828.757 L 261.865,829.821 L 263.568,830.843 L 265.312,831.821 L 267.099,832.757 L 268.887,833.651 L 270.716,834.501 L 272.545,835.309 L 274.417,836.076 L 276.332,836.799 L 278.247,837.48 L 280.163,838.076 L 282.119,838.671 L 284.076,839.224 L 286.076,839.692 L 288.119,840.117 L 290.119,840.544 L 292.161,840.841 L 294.247,841.139 L 296.331,841.395 L 298.416,841.565 L 300.544,841.692 L 302.671,841.777 L 304.799,841.82 L 305.863,841.82 L 307.989,841.735 L 310.075,841.649 L 312.16,841.48 L 314.244,841.267 L 316.287,841.012 L 318.329,840.713 L 320.372,840.373 L 322.372,839.948 L 324.371,839.48 L 326.328,838.969 L 328.285,838.416 L 330.2,837.863 L 332.115,837.183 L 334.031,836.501 L 335.903,835.777 L 337.732,835.012 L 339.561,834.204 L 341.348,833.352 L 343.136,832.416 L 344.88,831.48 L 346.583,830.501 L 348.284,829.48 L 349.987,828.417 L 351.603,827.311 L 353.22,826.161 L 354.837,825.013 L 356.368,823.779 L 357.9,822.545 L 359.389,821.268 L 360.879,819.949 L 362.325,818.588 L 363.729,817.184 L 365.092,815.779 L 366.411,814.332 L 367.729,812.843 L 368.964,811.355 L 370.197,809.78 L 371.389,808.205 L 372.58,806.631 L 373.687,804.972 L 374.751,803.312 L 375.813,801.652 L 376.792,799.951 L 377.771,798.207 L 378.707,796.419 L 379.559,794.632 L 380.409,792.845 L 381.217,791.015 L 381.941,789.143 L 382.664,787.271 L 383.345,785.356 L 383.941,783.441 L 384.536,781.484 L 385.047,779.527 L 385.515,777.569 L 385.983,775.569 L 386.324,773.527 L 386.664,771.527 L 386.961,769.443 L 387.217,767.4 L 387.388,765.315 L 387.515,763.229 L 387.6,761.103 L 387.6,758.975 L 387.6,756.592 L 387.472,754.209 L 391.26,753.699 L 395.089,753.273 L 398.919,752.932 L 402.748,752.635 L 406.577,752.38 L 410.449,752.209 L 414.364,752.081 L 418.279,752.039 L 422.193,752.039 L 426.108,752.124 L 430.065,752.295 L 434.064,752.507 L 438.064,752.805 L 442.064,753.145 L 446.107,753.571 L 450.148,754.081 L 450.02,756.507 L 449.979,758.975 L 450.02,761.145 L 450.105,763.272 L 450.233,765.357 L 450.404,767.443 L 450.659,769.527 L 450.957,771.612 L 451.297,773.655 L 451.68,775.697 L 452.105,777.697 L 452.616,779.697 L 453.127,781.655 L 453.723,783.612 L 454.361,785.568 L 454.999,787.484 L 455.723,789.356 L 456.488,791.228 L 457.296,793.057 L 458.148,794.887 L 459.041,796.675 L 459.977,798.461 L 460.956,800.205 L 461.977,801.951 L 463.041,803.652 L 464.147,805.312 L 465.253,806.929 L 466.445,808.545 L 467.636,810.12 L 468.913,811.695 L 470.189,813.184 L 471.508,814.673 L 472.869,816.12 L 474.273,817.567 L 475.679,818.928 L 477.125,820.289 L 478.615,821.608 L 480.145,822.885 L 481.677,824.161 L 483.252,825.353 L 484.869,826.544 L 486.528,827.651 L 488.188,828.757 L 489.847,829.821 L 491.592,830.843 L 493.336,831.821 L 495.124,832.757 L 496.911,833.651 L 498.74,834.501 L 500.569,835.309 L 502.441,836.076 L 504.357,836.799 L 506.272,837.48 L 508.187,838.076 L 510.144,838.671 L 512.101,839.224 L 514.1,839.692 L 516.143,840.117 L 518.143,840.544 L 520.185,840.841 L 522.271,841.139 L 524.355,841.395 L 526.44,841.565 L 528.568,841.692 L 530.695,841.777 L 532.823,841.82 Z M 532.823,829.055 L 530.993,829.012 L 529.205,828.927 L 527.419,828.843 L 525.675,828.672 L 523.887,828.459 L 522.143,828.247 L 520.397,827.948 L 518.696,827.608 L 516.993,827.225 L 515.292,826.843 L 513.632,826.375 L 511.973,825.864 L 510.356,825.353 L 508.739,824.8 L 507.123,824.161 L 505.548,823.524 L 503.973,822.843 L 502.441,822.119 L 500.911,821.353 L 499.421,820.588 L 497.932,819.736 L 496.485,818.885 L 495.081,817.992 L 493.677,817.056 L 492.272,816.12 L 490.911,815.099 L 489.592,814.077 L 488.273,813.056 L 486.996,811.949 L 485.72,810.844 L 484.485,809.695 L 483.295,808.503 L 482.103,807.312 L 480.955,806.077 L 479.848,804.844 L 478.784,803.525 L 477.72,802.248 L 476.699,800.887 L 475.679,799.525 L 474.743,798.164 L 473.805,796.76 L 472.912,795.312 L 472.061,793.865 L 471.211,792.377 L 470.444,790.888 L 469.679,789.356 L 468.955,787.824 L 468.275,786.249 L 467.636,784.675 L 467.04,783.059 L 466.445,781.441 L 465.935,779.824 L 465.424,778.165 L 464.999,776.505 L 464.572,774.804 L 464.189,773.101 L 463.849,771.4 L 463.595,769.655 L 463.339,767.911 L 463.125,766.165 L 462.999,764.379 L 462.871,762.592 L 462.785,760.804 L 462.785,758.975 L 462.785,757.188 L 462.871,755.4 L 462.999,753.613 L 463.125,751.827 L 463.339,750.081 L 463.595,748.337 L 463.849,746.593 L 464.189,744.891 L 464.572,743.188 L 464.999,741.487 L 465.424,739.827 L 465.935,738.168 L 466.445,736.508 L 467.04,734.892 L 467.636,733.317 L 468.275,731.743 L 468.955,730.168 L 469.679,728.636 L 470.444,727.105 L 471.211,725.616 L 472.061,724.127 L 472.912,722.68 L 473.805,721.233 L 474.743,719.828 L 475.679,718.424 L 476.699,717.063 L 477.72,715.744 L 478.784,714.425 L 479.848,713.148 L 480.955,711.915 L 482.103,710.68 L 483.295,709.447 L 484.485,708.297 L 485.72,707.148 L 486.996,706.043 L 488.273,704.936 L 489.592,703.872 L 490.911,702.851 L 492.272,701.872 L 493.677,700.893 L 495.081,700 L 496.485,699.107 L 497.932,698.213 L 499.421,697.404 L 500.911,696.596 L 502.441,695.873 L 503.973,695.149 L 505.548,694.469 L 507.123,693.788 L 508.739,693.192 L 510.356,692.639 L 511.973,692.085 L 513.632,691.617 L 515.292,691.149 L 516.993,690.724 L 518.696,690.384 L 520.397,690.044 L 522.143,689.745 L 523.887,689.491 L 525.675,689.32 L 527.419,689.149 L 529.205,689.023 L 530.993,688.98 L 532.823,688.937 L 534.609,688.98 L 536.439,689.023 L 538.184,689.149 L 539.971,689.32 L 541.757,689.491 L 543.503,689.745 L 545.204,690.044 L 546.949,690.384 L 548.651,690.724 L 550.311,691.149 L 551.969,691.617 L 553.629,692.085 L 555.289,692.639 L 556.905,693.192 L 558.48,693.788 L 560.097,694.469 L 561.628,695.149 L 563.203,695.873 L 564.692,696.596 L 566.224,697.404 L 567.671,698.213 L 569.117,699.107 L 570.564,700 L 571.968,700.893 L 573.372,701.872 L 574.733,702.851 L 576.053,703.872 L 577.372,704.936 L 578.648,706.043 L 579.925,707.148 L 581.159,708.297 L 582.351,709.447 L 583.499,710.68 L 584.648,711.915 L 585.755,713.148 L 586.86,714.425 L 587.924,715.744 L 588.945,717.063 L 589.924,718.424 L 590.903,719.828 L 591.839,721.233 L 592.732,722.68 L 593.584,724.127 L 594.392,725.616 L 595.2,727.105 L 595.967,728.636 L 596.689,730.168 L 597.371,731.743 L 598.009,733.317 L 598.604,734.892 L 599.157,736.508 L 599.711,738.168 L 600.179,739.827 L 600.647,741.487 L 601.072,743.188 L 601.455,744.891 L 601.753,746.593 L 602.051,748.337 L 602.307,750.081 L 602.519,751.827 L 602.647,753.613 L 602.775,755.4 L 602.817,757.188 L 602.86,758.975 L 602.817,760.804 L 602.775,762.592 L 602.647,764.379 L 602.519,766.165 L 602.307,767.911 L 602.051,769.655 L 601.753,771.4 L 601.455,773.101 L 601.072,774.804 L 600.647,776.505 L 600.179,778.165 L 599.711,779.824 L 599.157,781.441 L 598.604,783.059 L 598.009,784.675 L 597.371,786.249 L 596.689,787.824 L 595.967,789.356 L 595.2,790.888 L 594.392,792.377 L 593.584,793.865 L 592.732,795.312 L 591.839,796.76 L 590.903,798.164 L 589.924,799.525 L 588.945,800.887 L 587.924,802.248 L 586.86,803.525 L 585.755,804.844 L 584.648,806.077 L 583.499,807.312 L 582.351,808.503 L 581.159,809.695 L 579.925,810.844 L 578.648,811.949 L 577.372,813.056 L 576.053,814.077 L 574.733,815.099 L 573.372,816.12 L 571.968,817.056 L 570.564,817.992 L 569.117,818.885 L 567.671,819.736 L 566.224,820.588 L 564.692,821.353 L 563.203,822.119 L 561.628,822.843 L 560.097,823.524 L 558.48,824.161 L 556.905,824.8 L 555.289,825.353 L 553.629,825.864 L 551.969,826.375 L 550.311,826.843 L 548.651,827.225 L 546.949,827.608 L 545.204,827.948 L 543.503,828.247 L 541.757,828.459 L 539.971,828.672 L 538.184,828.843 L 536.439,828.927 L 534.609,829.012 Z M 304.799,829.055 L 302.969,829.012 L 301.181,828.927 L 299.395,828.843 L 297.649,828.672 L 295.863,828.459 L 294.119,828.247 L 292.373,827.948 L 290.672,827.608 L 288.969,827.225 L 287.268,826.843 L 285.608,826.375 L 283.949,825.864 L 282.332,825.353 L 280.715,824.8 L 279.099,824.161 L 277.524,823.524 L 275.949,822.843 L 274.417,822.119 L 272.887,821.353 L 271.397,820.588 L 269.951,819.736 L 268.461,818.885 L 267.057,817.992 L 265.652,817.056 L 264.248,816.12 L 262.887,815.099 L 261.568,814.077 L 260.249,813.056 L 258.972,811.949 L 257.696,810.844 L 256.461,809.695 L 255.271,808.503 L 254.079,807.312 L 252.931,806.077 L 251.824,804.844 L 250.76,803.525 L 249.696,802.248 L 248.675,800.887 L 247.655,799.525 L 246.717,798.164 L 245.781,796.76 L 244.888,795.312 L 244.037,793.865 L 243.187,792.377 L 242.42,790.888 L 241.655,789.356 L 240.931,787.824 L 240.251,786.249 L 239.612,784.675 L 239.016,783.059 L 238.421,781.441 L 237.911,779.824 L 237.4,778.165 L 236.975,776.505 L 236.548,774.804 L 236.165,773.101 L 235.868,771.4 L 235.569,769.655 L 235.315,767.911 L 235.101,766.165 L 234.975,764.379 L 234.847,762.592 L 234.761,760.804 L 234.761,758.975 L 234.761,757.188 L 234.847,755.4 L 234.975,753.613 L 235.101,751.827 L 235.315,750.081 L 235.569,748.337 L 235.868,746.593 L 236.165,744.891 L 236.548,743.188 L 236.975,741.487 L 237.4,739.827 L 237.911,738.168 L 238.421,736.508 L 239.016,734.892 L 239.612,733.317 L 240.251,731.743 L 240.931,730.168 L 241.655,728.636 L 242.42,727.105 L 243.187,725.616 L 244.037,724.127 L 244.888,722.68 L 245.781,721.233 L 246.717,719.828 L 247.655,718.424 L 248.675,717.063 L 249.696,715.744 L 250.76,714.425 L 251.824,713.148 L 252.931,711.915 L 254.079,710.68 L 255.271,709.447 L 256.461,708.297 L 257.696,707.148 L 258.972,706.043 L 260.249,704.936 L 261.568,703.872 L 262.887,702.851 L 264.248,701.872 L 265.652,700.893 L 267.057,700 L 268.461,699.107 L 269.951,698.213 L 271.397,697.404 L 272.887,696.596 L 274.417,695.873 L 275.949,695.149 L 277.524,694.469 L 279.099,693.788 L 280.715,693.192 L 282.332,692.639 L 283.949,692.085 L 285.608,691.617 L 287.268,691.149 L 288.969,690.724 L 290.672,690.384 L 292.373,690.044 L 294.119,689.745 L 295.863,689.491 L 297.649,689.32 L 299.395,689.149 L 301.181,689.023 L 302.969,688.98 L 304.799,688.937 L 306.585,688.98 L 308.415,689.023 L 310.203,689.149 L 311.947,689.32 L 313.733,689.491 L 315.479,689.745 L 317.18,690.044 L 318.925,690.384 L 320.627,690.724 L 322.287,691.149 L 323.988,691.617 L 325.605,692.085 L 327.264,692.639 L 328.881,693.192 L 330.456,693.788 L 332.073,694.469 L 333.604,695.149 L 335.179,695.873 L 336.668,696.596 L 338.2,697.404 L 339.647,698.213 L 341.093,699.107 L 342.54,700 L 343.944,700.893 L 345.348,701.872 L 346.709,702.851 L 348.029,703.872 L 349.348,704.936 L 350.624,706.043 L 351.901,707.148 L 353.135,708.297 L 354.327,709.447 L 355.475,710.68 L 356.624,711.915 L 357.773,713.148 L 358.836,714.425 L 359.9,715.744 L 360.921,717.063 L 361.9,718.424 L 362.879,719.828 L 363.815,721.233 L 364.708,722.68 L 365.56,724.127 L 366.368,725.616 L 367.176,727.105 L 367.943,728.636 L 368.665,730.168 L 369.347,731.743 L 369.984,733.317 L 370.58,734.892 L 371.176,736.508 L 371.687,738.168 L 372.197,739.827 L 372.623,741.487 L 373.048,743.188 L 373.431,744.891 L 373.729,746.593 L 374.027,748.337 L 374.283,750.081 L 374.495,751.827 L 374.623,753.613 L 374.751,755.4 L 374.835,757.188 L 374.835,758.975 L 374.835,760.804 L 374.751,762.592 L 374.623,764.379 L 374.495,766.165 L 374.283,767.911 L 374.027,769.655 L 373.729,771.4 L 373.431,773.101 L 373.048,774.804 L 372.623,776.505 L 372.197,778.165 L 371.687,779.824 L 371.176,781.441 L 370.58,783.059 L 369.984,784.675 L 369.347,786.249 L 368.665,787.824 L 367.943,789.356 L 367.176,790.888 L 366.368,792.377 L 365.56,793.865 L 364.708,795.312 L 363.815,796.76 L 362.879,798.164 L 361.9,799.525 L 360.921,800.887 L 359.9,802.248 L 358.836,803.525 L 357.773,804.844 L 356.624,806.077 L 355.475,807.312 L 354.327,808.503 L 353.135,809.695 L 351.901,810.844 L 350.624,811.949 L 349.348,813.056 L 348.029,814.077 L 346.709,815.099 L 345.348,816.12 L 343.944,817.056 L 342.54,817.992 L 341.093,818.885 L 339.647,819.736 L 338.2,820.588 L 336.668,821.353 L 335.179,822.119 L 333.604,822.843 L 332.073,823.524 L 330.456,824.161 L 328.881,824.8 L 327.264,825.353 L 325.605,825.864 L 323.988,826.375 L 322.287,826.843 L 320.627,827.225 L 318.925,827.608 L 317.18,827.948 L 315.479,828.247 L 313.733,828.459 L 311.947,828.672 L 310.203,828.843 L 308.415,828.927 L 306.585,829.012 Z M 223.273,744.38 L 158.725,711.531 L 158.215,706.468 L 157.789,701.404 L 157.448,696.341 L 157.193,691.277 L 157.023,686.172 L 156.896,681.108 L 156.896,676.044 L 156.937,670.939 L 157.065,665.875 L 157.279,660.769 L 157.576,655.705 L 157.959,650.643 L 158.427,645.536 L 158.98,640.472 L 159.619,635.367 L 160.341,630.26 L 161.151,625.197 L 162.001,620.091 L 162.98,614.985 L 164.044,609.921 L 165.151,604.816 L 166.384,599.709 L 167.66,594.604 L 169.064,589.497 L 170.511,584.392 L 172.085,579.285 L 173.703,574.221 L 175.447,569.116 L 177.277,563.967 L 179.149,558.861 L 181.149,553.755 L 183.233,548.649 L 195.573,591.241 L 197.743,589.455 L 199.785,587.711 L 201.785,585.88 L 203.7,584.093 L 205.529,582.307 L 207.317,580.477 L 209.019,578.647 L 210.636,576.817 L 212.168,574.988 L 213.657,573.116 L 215.104,571.285 L 216.423,569.413 L 217.699,567.541 L 218.933,565.627 L 220.081,563.755 L 221.188,561.84 L 222.209,559.925 L 223.188,558.011 L 224.081,556.096 L 224.932,554.139 L 225.699,552.224 L 226.464,550.267 L 227.145,548.309 L 227.741,546.352 L 228.293,544.395 L 228.847,542.395 L 229.272,540.437 L 229.699,538.437 L 230.039,536.437 L 230.379,534.437 L 230.635,532.437 L 230.847,530.437 L 232.336,531.629 L 233.783,532.905 L 235.101,534.183 L 236.421,535.544 L 237.612,536.991 L 238.761,538.437 L 239.825,539.969 L 240.804,541.543 L 241.74,543.16 L 242.591,544.82 L 243.356,546.521 L 244.08,548.309 L 244.719,550.139 L 245.271,552.011 L 245.781,553.925 L 246.208,555.925 L 246.548,557.968 L 246.845,560.011 L 247.059,562.137 L 247.228,564.351 L 247.313,566.563 L 247.313,568.86 L 247.271,571.159 L 247.144,573.541 L 246.973,575.967 L 246.717,578.435 L 246.377,580.988 L 245.995,583.54 L 245.527,586.179 L 244.973,588.859 L 244.42,591.583 L 243.74,594.348 L 245.016,593.199 L 246.292,592.008 L 247.527,590.773 L 248.717,589.54 L 249.867,588.221 L 250.973,586.901 L 252.079,585.497 L 253.143,584.136 L 254.207,582.689 L 255.185,581.2 L 256.164,579.711 L 257.143,578.179 L 258.079,576.647 L 258.972,575.073 L 259.865,573.456 L 260.717,571.839 L 261.568,570.223 L 262.376,568.52 L 263.951,565.159 L 265.44,561.712 L 266.887,558.223 L 268.248,554.649 L 269.524,551.075 L 270.801,547.457 L 271.992,543.841 L 273.184,540.224 L 274.333,536.608 L 276.545,529.416 L 278.716,522.396 L 279.821,518.949 L 280.885,515.588 L 281.992,512.312 L 283.14,509.163 L 284.289,506.056 L 285.481,503.077 L 286.715,500.227 L 287.353,498.865 L 287.991,497.504 L 288.629,496.185 L 289.311,494.908 L 289.991,493.675 L 290.715,492.483 L 291.14,491.76 L 291.651,491.036 L 292.161,490.397 L 292.672,489.76 L 293.225,489.207 L 293.777,488.653 L 294.373,488.143 L 294.969,487.717 L 295.608,487.292 L 296.245,486.909 L 296.884,486.568 L 297.523,486.271 L 298.203,486.015 L 298.884,485.803 L 299.607,485.632 L 300.331,485.505 L 301.053,485.377 L 301.777,485.335 L 302.543,485.335 L 303.309,485.377 L 304.075,485.463 L 304.841,485.547 L 305.607,485.717 L 306.415,485.931 L 307.224,486.185 L 308.032,486.441 L 308.84,486.781 L 309.649,487.164 L 310.457,487.589 L 311.308,488.057 L 312.117,488.525 L 312.968,489.079 L 313.819,489.675 L 314.628,490.313 L 315.479,490.993 L 316.329,491.717 L 317.137,492.483 L 317.989,493.292 L 318.84,494.143 L 319.648,495.036 L 320.499,495.972 L 321.308,496.993 L 322.159,498.015 L 322.967,499.079 L 323.776,500.227 L 324.584,501.376 L 325.392,502.609 L 326.201,503.844 L 327.009,505.163 L 327.775,506.524 L 328.584,507.929 L 329.349,509.376 L 330.073,510.864 L 330.839,512.396 L 331.563,513.971 L 332.328,515.588 L 333.009,517.289 L 333.732,518.992 L 334.413,520.779 L 335.093,522.608 L 335.732,524.481 L 336.413,526.396 L 337.051,528.353 L 337.647,530.352 L 337.903,531.204 L 338.2,532.055 L 338.583,532.905 L 338.923,533.756 L 339.775,535.544 L 340.753,537.331 L 341.816,539.117 L 343.008,540.948 L 344.241,542.82 L 345.561,544.692 L 348.369,548.521 L 351.305,552.436 L 354.241,556.393 L 355.688,558.393 L 357.092,560.351 L 358.496,562.351 L 359.815,564.393 L 361.049,566.392 L 362.24,568.392 L 363.304,570.392 L 364.283,572.392 L 364.708,573.371 L 365.133,574.349 L 365.517,575.328 L 365.857,576.349 L 366.155,577.328 L 366.453,578.307 L 366.665,579.285 L 366.879,580.264 L 367.007,581.243 L 367.133,582.221 L 367.176,583.157 L 367.219,584.136 L 367.176,585.072 L 367.091,586.008 L 366.964,586.987 L 366.751,587.923 L 366.496,588.859 L 366.197,589.795 L 365.857,590.689 L 365.432,591.625 L 373.345,586.008 L 380.239,581.029 L 386.281,576.689 L 388.961,574.689 L 391.429,572.817 L 393.727,571.031 L 395.812,569.328 L 397.684,567.712 L 399.429,566.18 L 401.003,564.648 L 402.408,563.201 L 403.641,561.797 L 404.748,560.393 L 405.727,559.032 L 406.152,558.308 L 406.577,557.627 L 406.917,556.947 L 407.259,556.223 L 407.599,555.5 L 407.853,554.819 L 408.364,553.329 L 408.748,551.84 L 409.045,550.267 L 409.257,548.649 L 409.385,546.947 L 409.428,545.16 L 409.428,543.245 L 409.343,541.245 L 409.216,539.076 L 409.088,536.82 L 408.663,531.799 L 408.577,530.693 L 408.535,529.544 L 408.535,528.437 L 408.62,527.332 L 408.705,526.268 L 408.832,525.247 L 409.003,524.225 L 409.216,523.204 L 409.471,522.225 L 409.727,521.247 L 410.024,520.311 L 410.364,519.417 L 410.747,518.524 L 411.173,517.631 L 411.599,516.821 L 412.024,516.013 L 412.535,515.205 L 413.045,514.439 L 413.556,513.716 L 414.108,513.035 L 414.704,512.353 L 415.257,511.716 L 415.896,511.077 L 416.533,510.524 L 417.172,509.971 L 417.811,509.46 L 418.491,508.949 L 419.172,508.524 L 419.853,508.099 L 420.576,507.716 L 421.257,507.376 L 421.98,507.035 L 422.704,506.78 L 423.427,506.524 L 424.151,506.312 L 424.873,506.141 L 425.64,506.013 L 426.363,505.929 L 427.087,505.887 L 427.809,505.887 L 428.533,505.929 L 429.256,505.972 L 429.937,506.099 L 430.66,506.269 L 431.341,506.44 L 432.023,506.695 L 432.703,506.992 L 433.341,507.333 L 433.98,507.716 L 434.617,508.141 L 435.213,508.609 L 435.809,509.12 L 436.363,509.673 L 436.915,510.312 L 437.468,510.949 L 437.979,511.673 L 438.447,512.439 L 438.872,513.248 L 439.299,514.099 L 439.724,515.035 L 440.107,516.013 L 440.404,517.035 L 440.745,518.099 L 441,519.247 L 441.425,520.864 L 441.893,522.565 L 442.532,524.396 L 443.213,526.311 L 444.021,528.311 L 444.915,530.395 L 445.893,532.565 L 446.957,534.777 L 448.105,537.076 L 449.34,539.373 L 450.616,541.756 L 451.936,544.139 L 453.34,546.607 L 454.829,549.032 L 456.319,551.5 L 457.892,554.011 L 459.467,556.479 L 461.127,558.947 L 462.785,561.415 L 464.488,563.84 L 466.189,566.223 L 467.935,568.605 L 469.721,570.903 L 471.465,573.2 L 473.253,575.413 L 475.04,577.541 L 476.827,579.625 L 478.615,581.625 L 480.359,583.54 L 482.103,585.371 L 483.848,587.072 L 485.549,588.689 L 484.444,583.455 L 483.507,578.52 L 482.741,573.924 L 482.06,569.584 L 481.551,565.499 L 481.167,561.669 L 481.04,559.883 L 480.912,558.137 L 480.827,556.436 L 480.784,554.776 L 480.784,553.203 L 480.784,551.671 L 480.827,550.224 L 480.869,548.777 L 480.955,547.415 L 481.081,546.096 L 481.209,544.82 L 481.38,543.585 L 481.592,542.395 L 481.805,541.245 L 482.019,540.139 L 482.273,539.076 L 482.571,538.055 L 482.869,537.033 L 483.209,536.055 L 483.549,535.161 L 483.891,534.225 L 484.273,533.373 L 484.699,532.523 L 485.124,531.715 L 486.017,530.14 L 486.953,528.693 L 487.975,527.289 L 489.039,525.969 L 490.145,524.651 L 491.336,523.417 L 492.528,522.183 L 493.761,520.992 L 496.315,518.567 L 498.953,516.013 L 500.272,514.695 L 501.633,513.291 L 501.336,515.673 L 501.123,518.013 L 500.911,520.225 L 500.74,522.396 L 500.612,524.481 L 500.527,526.48 L 500.484,528.437 L 500.443,530.311 L 500.443,532.14 L 500.484,533.884 L 500.569,535.544 L 500.655,537.203 L 500.825,538.735 L 500.995,540.267 L 501.208,541.713 L 501.421,543.16 L 501.676,544.521 L 502.016,545.841 L 502.315,547.075 L 502.697,548.309 L 503.08,549.5 L 503.505,550.649 L 503.973,551.797 L 504.441,552.861 L 504.952,553.925 L 505.505,554.947 L 506.059,555.925 L 506.697,556.904 L 507.292,557.84 L 507.973,558.776 L 508.655,559.712 L 509.377,560.605 L 510.101,561.457 L 510.867,562.351 L 512.484,564.052 L 514.185,565.712 L 516.015,567.371 L 517.931,569.073 L 519.929,570.775 L 524.228,574.349 L 528.908,578.264 L 531.333,580.349 L 533.887,582.604 L 536.524,584.987 L 539.205,587.54 L 542.013,590.263 L 544.864,593.199 L 544.353,589.243 L 543.971,585.371 L 543.631,581.625 L 543.332,577.967 L 543.163,574.435 L 543.035,570.988 L 542.949,567.669 L 542.949,564.435 L 543.035,561.287 L 543.12,558.223 L 543.289,555.244 L 543.545,552.351 L 543.8,549.543 L 544.141,546.82 L 544.524,544.139 L 544.907,541.543 L 545.375,538.991 L 545.885,536.523 L 546.439,534.14 L 546.992,531.757 L 547.587,529.459 L 548.225,527.204 L 548.907,524.991 L 549.587,522.821 L 550.311,520.693 L 551.076,518.567 L 551.843,516.524 L 552.608,514.481 L 554.225,510.481 L 555.884,506.524 L 556.48,511.077 L 556.777,513.332 L 557.161,515.631 L 557.544,517.885 L 557.927,520.183 L 558.395,522.481 L 558.863,524.779 L 559.373,527.033 L 559.927,529.373 L 560.523,531.672 L 561.16,533.969 L 561.841,536.267 L 562.565,538.608 L 563.331,540.948 L 564.139,543.288 L 564.991,545.628 L 565.927,547.968 L 566.905,550.308 L 567.925,552.692 L 568.989,555.032 L 570.139,557.415 L 571.329,559.797 L 572.607,562.18 L 573.925,564.605 L 575.329,566.988 L 576.776,569.413 L 578.308,571.839 L 579.925,574.264 L 581.584,576.732 L 583.329,579.157 L 585.159,581.625 L 585.201,578.093 L 585.244,574.648 L 585.372,571.201 L 585.499,567.84 L 585.712,564.52 L 585.967,561.244 L 586.223,558.053 L 586.563,554.861 L 586.945,551.756 L 587.329,548.692 L 587.797,545.713 L 588.307,542.735 L 588.86,539.841 L 589.413,536.991 L 590.052,534.225 L 590.732,531.459 L 591.456,528.779 L 592.221,526.14 L 593.031,523.587 L 593.881,521.035 L 594.775,518.567 L 595.711,516.141 L 596.689,513.8 L 597.711,511.46 L 598.775,509.205 L 599.924,506.992 L 601.072,504.865 L 602.264,502.737 L 603.497,500.695 L 604.816,498.695 L 606.136,496.78 L 607.54,494.908 L 611.199,500.865 L 614.816,506.865 L 618.348,512.907 L 621.836,518.992 L 625.197,525.119 L 628.517,531.289 L 631.708,537.501 L 634.815,543.756 L 637.835,550.053 L 639.324,553.244 L 640.771,556.436 L 642.217,559.627 L 643.58,562.819 L 644.984,566.052 L 646.303,569.287 L 647.621,572.563 L 648.899,575.839 L 650.175,579.115 L 651.408,582.392 L 652.6,585.711 L 653.792,589.029 L 654.94,592.348 L 656.047,595.709 L 657.111,599.071 L 658.175,602.475 L 659.195,605.879 L 660.173,609.283 L 661.152,612.729 L 662.047,616.176 L 662.94,619.665 L 663.833,623.155 L 664.641,626.644 L 665.408,630.176 L 666.173,633.707 L 666.897,637.239 L 667.577,640.813 L 668.216,644.429 L 668.812,648.047 L 669.407,651.663 L 669.917,655.323 L 670.428,658.981 L 670.853,662.684 L 671.28,666.385 L 671.663,670.129 L 672.003,673.875 L 672.3,677.619 L 672.556,681.405 L 672.768,685.235 L 672.939,689.065 L 673.067,692.895 L 673.152,696.767 L 673.195,700.681 L 673.195,704.596 L 673.195,708.553 L 673.109,712.509 L 614.008,742.593 L 613.624,740.805 L 613.241,739.061 L 612.773,737.317 L 612.305,735.615 L 611.752,733.871 L 611.199,732.211 L 610.604,730.509 L 610.008,728.849 L 609.327,727.232 L 608.647,725.573 L 607.88,723.999 L 607.115,722.381 L 606.348,720.807 L 605.497,719.276 L 604.647,717.744 L 603.753,716.212 L 602.817,714.723 L 601.881,713.276 L 600.903,711.829 L 599.881,710.383 L 598.86,708.979 L 597.796,707.617 L 596.689,706.255 L 595.541,704.936 L 594.392,703.617 L 593.243,702.34 L 592.009,701.064 L 590.775,699.831 L 589.541,698.639 L 588.265,697.447 L 586.945,696.299 L 585.627,695.149 L 584.265,694.085 L 582.861,692.98 L 581.457,691.959 L 580.053,690.937 L 578.605,689.959 L 577.117,689.023 L 575.628,688.087 L 574.139,687.192 L 572.607,686.341 L 571.075,685.491 L 569.5,684.683 L 567.884,683.959 L 566.309,683.193 L 564.649,682.512 L 563.033,681.831 L 561.373,681.236 L 559.672,680.64 L 558.012,680.044 L 556.268,679.533 L 554.565,679.065 L 552.821,678.597 L 551.076,678.172 L 549.289,677.789 L 547.503,677.448 L 545.715,677.151 L 543.928,676.896 L 542.099,676.683 L 540.268,676.512 L 538.396,676.343 L 536.567,676.257 L 534.695,676.172 L 532.823,676.172 L 530.951,676.172 L 529.079,676.257 L 527.248,676.343 L 525.419,676.512 L 523.589,676.683 L 521.76,676.896 L 519.972,677.151 L 518.185,677.448 L 516.399,677.789 L 514.653,678.172 L 512.909,678.555 L 511.164,679.023 L 509.463,679.491 L 507.76,680.044 L 506.059,680.597 L 504.399,681.151 L 502.74,681.789 L 501.123,682.469 L 499.505,683.151 L 497.889,683.873 L 496.315,684.64 L 494.74,685.405 L 493.208,686.256 L 491.677,687.108 L 490.145,687.959 L 488.699,688.895 L 487.209,689.831 L 485.763,690.809 L 484.359,691.831 L 482.955,692.852 L 481.592,693.916 L 480.231,695.021 L 478.912,696.128 L 477.593,697.277 L 476.316,698.425 L 475.04,699.617 L 473.805,700.851 L 472.615,702.085 L 471.423,703.361 L 470.275,704.681 L 469.168,706 L 468.061,707.361 L 466.997,708.723 L 465.935,710.084 L 464.956,711.531 L 463.935,712.936 L 462.999,714.425 L 462.063,715.872 L 461.169,717.403 L 460.317,718.892 L 459.509,720.424 L 458.701,721.999 L 457.935,723.573 L 457.169,725.189 L 456.488,726.807 L 455.808,728.424 L 455.169,730.083 L 454.573,731.743 L 454.02,733.403 L 453.467,735.104 L 452.999,736.807 L 452.531,738.551 L 452.105,740.295 L 451.723,742.04 L 449.595,741.657 L 447.468,741.273 L 443.213,740.636 L 439,740.083 L 434.831,739.615 L 432.703,739.444 L 430.617,739.275 L 426.491,739.061 L 422.363,738.933 L 418.236,738.891 L 414.108,738.976 L 410.024,739.147 L 405.981,739.444 L 401.94,739.784 L 397.897,740.253 L 393.897,740.805 L 389.897,741.401 L 385.899,742.125 L 385.515,740.38 L 385.089,738.636 L 384.621,736.891 L 384.153,735.189 L 383.6,733.487 L 383.047,731.785 L 382.452,730.125 L 381.813,728.509 L 381.132,726.849 L 380.452,725.232 L 379.728,723.659 L 378.963,722.041 L 378.155,720.509 L 377.303,718.977 L 376.452,717.445 L 375.559,715.956 L 374.623,714.467 L 373.687,712.979 L 372.708,711.573 L 371.687,710.127 L 370.665,708.765 L 369.559,707.361 L 368.495,706.043 L 367.347,704.723 L 366.197,703.404 L 365.007,702.128 L 363.815,700.893 L 362.581,699.66 L 361.347,698.468 L 360.071,697.277 L 358.752,696.128 L 357.432,695.021 L 356.071,693.916 L 354.667,692.852 L 353.305,691.831 L 351.859,690.852 L 350.412,689.873 L 348.965,688.895 L 347.476,688.001 L 345.987,687.108 L 344.455,686.256 L 342.88,685.448 L 341.348,684.64 L 339.732,683.873 L 338.157,683.151 L 336.54,682.469 L 334.881,681.789 L 333.221,681.193 L 331.563,680.597 L 329.86,680.044 L 328.159,679.491 L 326.456,679.023 L 324.712,678.597 L 322.967,678.172 L 321.223,677.789 L 319.436,677.448 L 317.648,677.151 L 315.861,676.896 L 314.032,676.683 L 312.201,676.512 L 310.372,676.343 L 308.543,676.257 L 306.671,676.172 L 304.799,676.172 L 302.884,676.172 L 301.012,676.257 L 299.097,676.343 L 297.224,676.512 L 295.395,676.683 L 293.523,676.939 L 291.693,677.193 L 289.864,677.491 L 288.076,677.875 L 286.247,678.257 L 284.503,678.683 L 282.715,679.151 L 280.971,679.619 L 279.225,680.172 L 277.524,680.768 L 275.821,681.363 L 274.163,682.001 L 272.46,682.725 L 270.844,683.405 L 269.227,684.172 L 267.609,684.98 L 265.993,685.788 L 264.461,686.64 L 262.887,687.533 L 261.355,688.427 L 259.865,689.405 L 258.376,690.384 L 256.929,691.405 L 255.483,692.427 L 254.079,693.491 L 252.675,694.596 L 251.313,695.745 L 249.995,696.895 L 248.675,698.085 L 247.399,699.277 L 246.123,700.553 L 244.888,701.787 L 243.655,703.107 L 242.505,704.425 L 241.315,705.744 L 240.208,707.148 L 239.101,708.511 L 238.037,709.957 L 237.016,711.404 L 235.996,712.851 L 235.017,714.34 L 234.08,715.829 L 233.187,717.361 L 232.293,718.935 L 231.443,720.509 L 230.635,722.084 L 229.825,723.701 L 229.103,725.317 L 228.379,726.977 L 227.699,728.636 L 227.06,730.339 L 226.464,732.04 L 225.868,733.743 L 225.357,735.487 L 224.848,737.232 L 224.379,739.019 L 223.996,740.805 L 223.613,742.593 Z "/>
	</g>
</svg>